<svg width="76" height="76" viewBox="0 0 76 76" fill="none" xmlns="http://www.w3.org/2000/svg">
<circle cx="38" cy="38" r="38" fill="#333333"/>
<path d="M63.4016 46.7641H62.4298C62.038 41.2906 59.7157 36.1434 55.888 32.2647C52.0604 28.386 46.9835 26.0353 41.5868 25.643V23.8142H47.8205C48.4366 23.8142 49.0276 23.5664 49.4639 23.1252C49.9001 22.6839 50.1461 22.0851 50.1478 21.4602V18.3605C50.1478 17.7344 49.9026 17.134 49.4661 16.6914C49.0297 16.2487 48.4377 16 47.8205 16H40.7173C40.1 16 39.5081 16.2487 39.0716 16.6914C38.6352 17.134 38.39 17.7344 38.39 18.3605V25.643C34.9367 25.8887 31.5868 26.9436 28.6036 28.7249C25.6204 30.5062 23.0853 32.9652 21.1977 35.9084C20.5945 36.1924 20.0132 36.5219 19.4587 36.8941C17.8058 37.992 16.4104 39.4442 15.3709 41.1484C14.3313 42.8526 13.673 44.7673 13.4423 46.7576H12.5984C12.1745 46.7576 11.7679 46.9284 11.4682 47.2324C11.1684 47.5365 11 47.9488 11 48.3788C11 48.8088 11.1684 49.2211 11.4682 49.5252C11.7679 49.8292 12.1745 50 12.5984 50H63.4016C63.8255 50 64.2321 49.8292 64.5318 49.5252C64.8316 49.2211 65 48.8088 65 48.3788C65 47.9488 64.8316 47.5365 64.5318 47.2324C64.2321 46.9284 63.8255 46.7576 63.4016 46.7576V46.7641ZM41.5868 19.2424H46.951V20.5394H41.5868V19.2424ZM21.2169 39.6048C21.7832 39.2275 22.385 38.9082 23.0135 38.6515C23.2756 38.5413 23.5442 38.444 23.8127 38.3597H23.883C24.1771 38.2689 24.4776 38.1911 24.7845 38.1263L25.0211 38.0809C25.2448 38.042 25.4814 38.003 25.7116 37.9771H25.9801C26.286 37.9458 26.5933 37.9307 26.9008 37.9317C27.2396 37.9317 27.5785 37.9317 27.911 37.9836C28.0204 37.9923 28.1293 38.0075 28.237 38.029C28.4608 38.029 28.6782 38.0874 28.8764 38.1263L29.2536 38.2171L29.829 38.3662L30.2126 38.4959L30.7433 38.6969L31.1205 38.859L31.6256 39.1055L31.9837 39.3C32.1435 39.3973 32.3033 39.4946 32.4568 39.5983L32.7892 39.8188C32.9491 39.929 33.0961 40.0458 33.2496 40.1625L33.5501 40.4089C33.7035 40.5386 33.8506 40.6748 33.9912 40.8175L34.247 41.0574C34.4132 41.2325 34.5731 41.4141 34.7329 41.6021C34.7776 41.6605 34.8352 41.7124 34.8863 41.7772C35.0845 42.0236 35.2763 42.283 35.4554 42.5489C35.5001 42.6138 35.5321 42.6786 35.5768 42.7435C35.7047 42.951 35.8326 43.1585 35.9541 43.3919C36.0116 43.4957 36.0564 43.606 36.1075 43.7097C36.1587 43.8135 36.2929 44.0793 36.376 44.2674C36.4591 44.4555 36.4719 44.5138 36.5167 44.6306C36.5614 44.7473 36.6574 45.0002 36.7213 45.1882L36.8364 45.5838C36.8875 45.7654 36.9387 45.9535 36.977 46.1415C37.0154 46.3296 37.0346 46.4204 37.0601 46.5566C37.0857 46.6927 37.0601 46.7446 37.1049 46.8354H16.6455C16.8622 45.3715 17.3815 43.9707 18.1693 42.7246C18.9571 41.4785 19.9957 40.4153 21.2169 39.6048ZM40.3592 46.7381C40.3592 46.4787 40.2825 46.2323 40.2377 45.9794C40.2377 45.8303 40.193 45.6811 40.1674 45.5384C40.0843 45.1493 39.9884 44.7667 39.8733 44.3906C39.8733 44.3517 39.8733 44.3063 39.8733 44.2674C39.7454 43.8351 39.5984 43.4265 39.4322 43.0418C39.3874 42.9315 39.3235 42.8213 39.2787 42.7046C39.1508 42.4257 39.023 42.1533 38.8823 41.881C38.8056 41.7383 38.7225 41.6086 38.6457 41.466C38.569 41.3233 38.3772 41.0055 38.2302 40.785C38.0831 40.5646 38.0384 40.4997 37.9361 40.357C37.8338 40.2144 37.642 39.9485 37.4885 39.754C37.3351 39.5594 37.2583 39.4816 37.1433 39.3454C37.0282 39.2092 36.8236 38.9758 36.651 38.7942C36.4783 38.6126 36.3952 38.5413 36.2673 38.4116C36.1395 38.2819 35.9157 38.0809 35.7367 37.9252L35.3083 37.5686C35.1229 37.4194 34.9375 37.2767 34.7393 37.1406C34.5411 37.0044 34.4388 36.9266 34.2853 36.8228C34.1319 36.7191 33.8825 36.5699 33.646 36.4467L33.1665 36.1743C32.9491 36.0576 32.7317 35.9538 32.5271 35.8566L32.022 35.6296C31.7919 35.5323 31.5617 35.448 31.3251 35.3702C31.0886 35.2924 30.9863 35.247 30.8136 35.1951C30.641 35.1432 30.3085 35.0589 30.0528 34.9941C29.7971 34.9292 29.7267 34.9098 29.5541 34.8774C29.2728 34.819 28.9787 34.7801 28.691 34.7412C28.5439 34.7412 28.4033 34.6893 28.2562 34.6763C27.8122 34.6318 27.3662 34.6101 26.92 34.6115C26.709 34.6115 26.5044 34.6115 26.2806 34.6115C28.8754 31.9494 32.1684 30.098 35.7692 29.2768C39.37 28.4555 43.1275 28.6989 46.596 29.9781C50.0646 31.2573 53.0987 33.5185 55.3385 36.4938C57.5783 39.469 58.9299 43.0333 59.233 46.7641L40.3592 46.7381Z" fill="white"/>
</svg>
