<?xml version="1.0" encoding="UTF-8"?>
<svg width="241px" height="241px" viewBox="0 0 241 241" version="1.1" xmlns="http://www.w3.org/2000/svg" xmlns:xlink="http://www.w3.org/1999/xlink">
    <title>Group</title>
    <defs>
        <linearGradient x1="50%" y1="53.8664281%" x2="50%" y2="98.7603866%" id="linearGradient-1">
            <stop stop-color="#E06363" offset="0%"></stop>
            <stop stop-color="#EC5F71" offset="100%"></stop>
        </linearGradient>
        <linearGradient x1="50%" y1="0%" x2="50%" y2="98.8371568%" id="linearGradient-2">
            <stop stop-color="#E7776E" offset="0%"></stop>
            <stop stop-color="#EA7371" offset="100%"></stop>
        </linearGradient>
        <linearGradient x1="50%" y1="4.11623916%" x2="50%" y2="100%" id="linearGradient-3">
            <stop stop-color="#F58F58" offset="0%"></stop>
            <stop stop-color="#EF8161" offset="100%"></stop>
        </linearGradient>
        <linearGradient x1="55.2922315%" y1="45.3064735%" x2="50%" y2="54.6935265%" id="linearGradient-4">
            <stop stop-color="#ED825E" offset="0%"></stop>
            <stop stop-color="#DE7159" offset="100%"></stop>
        </linearGradient>
        <linearGradient x1="58.9000435%" y1="45.6539914%" x2="51.288105%" y2="54.7165221%" id="linearGradient-5">
            <stop stop-color="#F66161" offset="0%"></stop>
            <stop stop-color="#EA6B7E" offset="100%"></stop>
        </linearGradient>
    </defs>
    <g id="Page-1" stroke="none" stroke-width="1" fill="none" fill-rule="evenodd">
        <g id="Group" fill-rule="nonzero">
            <path d="M15.0335575,178.505201 C7.64220441,165.031179 2.75535997,149.987019 1,134 L240,134 C236.99928,161.329187 224.847557,185.903099 206.676878,204.588174 L206.663697,204.588514 C184.821688,227.048676 154.282885,241 120.487149,241 C75.1219724,241 35.6253394,215.861648 15.1546393,178.748684 C15.1090151,178.665969 15.068672,178.584814 15.0335588,178.505205 L15.0335575,178.505201 Z M57.2753594,177.738039 C71.3407656,179.42936 87.6876892,181.721646 104.363908,183.998871 C95.0301247,179.788644 86.9248653,176.716245 76.859245,176.716245 C70.1071461,176.716245 63.5791843,177.056843 57.2753594,177.738039 L57.2753594,177.738039 Z M15.0335575,178.505201 C16.5793171,181.323035 18.2346132,184.072197 19.9937111,186.746951 C31.4010096,182.194116 43.8282261,179.191147 57.2753594,177.738039 C31.107791,174.591473 12.8369287,173.524948 15.0335588,178.505205 L15.0335575,178.505201 Z M104.363908,183.998871 C117.373323,189.867079 132.769361,197.945716 159.186556,202.996552 C167.839419,204.650936 183.665133,205.18159 206.663697,204.588514 C207.055294,204.185835 207.444095,203.78042 207.830069,203.372302 C217.029562,193.645029 175.688392,193.231199 129.582617,187.352106 C121.259399,186.290786 112.769819,185.146742 104.363908,183.998871 L104.363908,183.998871 Z" id="Shape" fill="url(#linearGradient-1)"></path>
            <path d="M20.55644,187.264193 C10.0703086,171.705924 3.16136166,153.563279 1,134 L240,134 C236.87844,162.25439 223.854002,187.545515 204.452568,206.367551 C183.530857,207.633353 168.342181,206.999095 158.886541,204.464776 C119.163944,193.818249 88.895305,182.080595 64.8002371,182.080595 C47.577069,182.080595 32.8291366,183.808461 20.55644,187.264193 L20.55644,187.264193 Z" id="Path" fill="url(#linearGradient-2)"></path>
            <path d="M3.54517355,150.440135 C1.22912179,141.037785 0,131.20278 0,121.078432 C0,105.150085 3.04230139,89.9379127 8.57319002,76 L232.426821,76 C237.957699,89.9379127 241,105.150085 241,121.078432 C241,130.690825 239.892041,140.042398 237.797816,149.010497 C207.116202,152.15334 181.138801,150.265294 159.865613,143.346359 C125.716519,132.239638 113.25562,140.82353 77.9569555,148.27451 C58.5771481,152.365275 33.7732206,153.087149 3.54517291,150.440132 L3.54517355,150.440135 Z" id="Path" fill="url(#linearGradient-3)"></path>
            <path d="M37.8550689,33.0009545 C32.1917687,38.3318774 27.0478916,44.2064983 22.5072124,50.5412063 C40.2796102,44.776308 58.4845084,41.8938588 77.121907,41.8938588 C128.667747,41.8938588 108.217745,47.2060278 173.331761,56.9603082 C193.173165,59.9326119 210.911873,62.5443864 226.547878,64.7956311 C230.53115,72.4093064 233.718578,80.5034925 236,88.9682449 C225.503757,91.9140375 210.369805,95.2748607 190.598143,99.0507144 C147.641958,107.254186 118.866391,85.2558352 74.9213258,85.2558352 C46.8644642,85.2558352 22.2240222,91.8372235 1,105 L1,105 C4.57508435,76.7562697 18.0029993,51.5768578 37.7385603,33 L37.8550565,33.0009567 L37.8550689,33.0009545 Z" id="Path" fill="url(#linearGradient-4)"></path>
            <path d="M16,60.5696977 C36.7632645,24.3724693 75.7122376,0 120.336698,0 C169.124655,0 211.128665,29.1325732 230,71 C207.225316,69.1865211 185.09778,64.8537901 163.617393,58.0018071 C111.089595,41.2460769 93.5272988,62.9147591 41.8714777,62.9147591 C31.2809912,62.9147591 22.6571653,62.133072 16,60.5696977 Z" id="Path" fill="url(#linearGradient-5)"></path>
        </g>
    </g>
</svg>